<svg width="156" height="40" viewBox="0 0 156 40" fill="none" xmlns="http://www.w3.org/2000/svg">
<path d="M22.0246 32.1116C22.0606 28.4402 21.1298 25.4546 19.9458 25.443C18.7617 25.4314 17.7727 28.3983 17.7369 32.0697C17.701 35.7411 18.6318 38.7268 19.8158 38.7383C20.9998 38.7499 21.9888 35.783 22.0246 32.1116Z" fill="#059669"/>
<path d="M15.1576 31.2778C17.1729 28.2086 18.0042 25.1938 17.0144 24.5438C16.0246 23.8939 13.5885 25.855 11.5733 28.9242C9.558 31.9933 8.72672 35.0081 9.71648 35.6581C10.7063 36.308 13.1423 34.3469 15.1576 31.2778Z" fill="#059669"/>
<path d="M9.82335 26.8744C13.1781 25.3822 15.5074 23.2955 15.0262 22.2136C14.545 21.1317 11.4354 21.4643 8.08063 22.9566C4.72595 24.4487 2.39656 26.5354 2.8778 27.6174C3.35903 28.6993 6.46867 28.3666 9.82335 26.8744Z" fill="#059669"/>
<path d="M14.6235 19.1796C14.8037 18.0093 12.0079 16.6078 8.37911 16.0492C4.75022 15.4906 1.66243 15.9866 1.4823 17.157C1.30217 18.3273 4.09791 19.7287 7.72678 20.2873C11.3556 20.8458 14.4434 20.3498 14.6235 19.1796Z" fill="#059669"/>
<path d="M15.9264 16.3916C16.7106 15.5044 15.116 12.8141 12.3649 10.3826C9.61376 7.95122 6.74786 6.69941 5.96372 7.58666C5.17957 8.47392 6.77413 11.1642 9.52528 13.5957C12.2764 16.0271 15.1423 17.2789 15.9264 16.3916Z" fill="#059669"/>
<path d="M18.5211 14.7622C19.6605 14.4398 19.7737 11.3145 18.774 7.78163C17.7743 4.24876 16.0402 1.64617 14.9009 1.96857C13.7615 2.29098 13.6483 5.41629 14.648 8.9492C15.6477 12.482 17.3818 15.0846 18.5211 14.7622Z" fill="#059669"/>
<path d="M25.5667 9.05912C26.6359 5.54664 26.5844 2.41969 25.4516 2.07489C24.3188 1.73007 22.5338 4.29796 21.4646 7.81043C20.3954 11.3229 20.447 14.4498 21.5798 14.7946C22.7126 15.1394 24.4976 12.5716 25.5667 9.05912Z" fill="#059669"/>
<path d="M30.6011 13.8052C33.3993 11.428 35.0462 8.76936 34.2794 7.86699C33.5128 6.96459 30.623 8.16016 27.8249 10.5373C25.0267 12.9145 23.3799 15.5731 24.1466 16.4755C24.9132 17.3779 27.803 16.1824 30.6011 13.8052Z" fill="#059669"/>
<path d="M32.2658 20.5215C35.905 20.0346 38.7278 18.6886 38.5707 17.5149C38.4138 16.3413 35.3363 15.7846 31.6971 16.2714C28.058 16.7582 25.2351 18.1043 25.3922 19.278C25.5492 20.4516 28.6266 21.0084 32.2658 20.5215Z" fill="#059669"/>
<path d="M36.9603 27.9528C37.4628 26.8806 35.175 24.7484 31.8504 23.1903C28.5258 21.6322 25.4234 21.2384 24.9209 22.3106C24.4184 23.3828 26.7062 25.515 30.0308 27.0731C33.3554 28.6311 36.4578 29.025 36.9603 27.9528Z" fill="#059669"/>
<path d="M29.9671 35.8639C30.9695 35.2337 30.1978 32.203 28.2435 29.0947C26.2892 25.9865 23.8922 23.9778 22.8898 24.608C21.8874 25.2382 22.6591 28.269 24.6134 31.3772C26.5678 34.4854 28.9647 36.4942 29.9671 35.8639Z" fill="#059669"/>
<path d="M53.944 10.94H58.168L62.152 23.444L62.296 24.38H62.704L62.848 23.444L66.856 10.94H70.936V27.5H68.536L68.656 14.804V13.796H68.248L68.08 14.708L63.904 27.5H61L56.824 14.708L56.68 13.796H56.272V14.804L56.392 27.5H53.944V10.94ZM79.6988 27.716C78.4668 27.716 77.4268 27.468 76.5788 26.972C75.7308 26.476 75.0908 25.764 74.6588 24.836C74.2268 23.908 74.0108 22.788 74.0108 21.476C74.0108 20.164 74.2348 19.036 74.6828 18.092C75.1468 17.132 75.8108 16.404 76.6748 15.908C77.5548 15.396 78.5948 15.14 79.7948 15.14C80.9788 15.14 81.9708 15.38 82.7708 15.86C83.5868 16.34 84.2028 17.036 84.6188 17.948C85.0348 18.844 85.2428 19.948 85.2428 21.26V21.788H75.5708V20.252H83.5868L82.7708 21.044C82.7708 20.148 82.6508 19.396 82.4108 18.788C82.1868 18.18 81.8428 17.716 81.3788 17.396C80.9308 17.076 80.3788 16.916 79.7228 16.916C79.0348 16.916 78.4508 17.092 77.9708 17.444C77.5068 17.78 77.1548 18.276 76.9148 18.932C76.6748 19.588 76.5548 20.42 76.5548 21.428C76.5548 22.404 76.6748 23.22 76.9148 23.876C77.1708 24.516 77.5388 25.004 78.0188 25.34C78.4988 25.66 79.0988 25.82 79.8188 25.82C80.6188 25.82 81.2588 25.636 81.7388 25.268C82.2348 24.884 82.5628 24.348 82.7228 23.66H85.1468C84.9548 24.908 84.3868 25.9 83.4428 26.636C82.5148 27.356 81.2668 27.716 79.6988 27.716ZM97.1416 27.74C96.2936 27.74 95.5576 27.604 94.9336 27.332C94.3256 27.06 93.8616 26.676 93.5416 26.18C93.2216 25.684 93.0616 25.1 93.0616 24.428C93.0616 23.436 93.3976 22.644 94.0696 22.052C94.7576 21.444 95.8776 21.044 97.4296 20.852L101.966 20.324V21.86L97.8856 22.316C97.0696 22.428 96.4776 22.636 96.1096 22.94C95.7416 23.228 95.5576 23.636 95.5576 24.164C95.5576 24.74 95.7496 25.188 96.1336 25.508C96.5336 25.812 97.0856 25.964 97.7896 25.964C98.4776 25.964 99.0856 25.828 99.6136 25.556C100.158 25.284 100.574 24.908 100.862 24.428C101.15 23.932 101.294 23.356 101.294 22.7V19.556C101.294 18.692 101.054 18.036 100.574 17.588C100.094 17.14 99.4056 16.916 98.5096 16.916C97.6456 16.916 96.9816 17.124 96.5176 17.54C96.0536 17.956 95.8056 18.564 95.7736 19.364H93.3016C93.3336 17.988 93.8056 16.94 94.7176 16.22C95.6456 15.5 96.9416 15.14 98.6056 15.14C100.35 15.14 101.654 15.524 102.518 16.292C103.382 17.06 103.814 18.18 103.814 19.652V27.5H101.798V26.372L101.99 25.268H101.414L102.038 24.26C101.942 24.82 101.702 25.364 101.318 25.892C100.95 26.42 100.414 26.86 99.7096 27.212C99.0056 27.564 98.1496 27.74 97.1416 27.74ZM105.451 15.74V15.38H108.019L111.163 24.02L111.259 24.956H111.595L111.715 24.02L114.859 15.38H117.355V15.716L112.939 27.5H109.867L105.451 15.74ZM122.665 27.74C121.817 27.74 121.081 27.604 120.457 27.332C119.849 27.06 119.385 26.676 119.065 26.18C118.745 25.684 118.585 25.1 118.585 24.428C118.585 23.436 118.921 22.644 119.593 22.052C120.281 21.444 121.401 21.044 122.953 20.852L127.489 20.324V21.86L123.409 22.316C122.593 22.428 122.001 22.636 121.633 22.94C121.265 23.228 121.081 23.636 121.081 24.164C121.081 24.74 121.273 25.188 121.657 25.508C122.057 25.812 122.609 25.964 123.313 25.964C124.001 25.964 124.609 25.828 125.137 25.556C125.681 25.284 126.097 24.908 126.385 24.428C126.673 23.932 126.817 23.356 126.817 22.7V19.556C126.817 18.692 126.577 18.036 126.097 17.588C125.617 17.14 124.929 16.916 124.033 16.916C123.169 16.916 122.505 17.124 122.041 17.54C121.577 17.956 121.329 18.564 121.297 19.364H118.825C118.857 17.988 119.329 16.94 120.241 16.22C121.169 15.5 122.465 15.14 124.129 15.14C125.873 15.14 127.177 15.524 128.041 16.292C128.905 17.06 129.337 18.18 129.337 19.652V27.5H127.321V26.372L127.513 25.268H126.937L127.561 24.26C127.465 24.82 127.225 25.364 126.841 25.892C126.473 26.42 125.937 26.86 125.233 27.212C124.529 27.564 123.673 27.74 122.665 27.74ZM132.549 10.22H135.069V27.5H132.549V10.22ZM138.5 15.38H141.044V27.5H138.5V15.38ZM138.38 10.22H141.14V13.292H138.38V10.22ZM147.72 27.74C146.872 27.74 146.136 27.604 145.512 27.332C144.904 27.06 144.44 26.676 144.12 26.18C143.8 25.684 143.64 25.1 143.64 24.428C143.64 23.436 143.976 22.644 144.648 22.052C145.336 21.444 146.456 21.044 148.008 20.852L152.544 20.324V21.86L148.464 22.316C147.648 22.428 147.056 22.636 146.688 22.94C146.32 23.228 146.136 23.636 146.136 24.164C146.136 24.74 146.328 25.188 146.712 25.508C147.112 25.812 147.664 25.964 148.368 25.964C149.056 25.964 149.664 25.828 150.192 25.556C150.736 25.284 151.152 24.908 151.44 24.428C151.728 23.932 151.872 23.356 151.872 22.7V19.556C151.872 18.692 151.632 18.036 151.152 17.588C150.672 17.14 149.984 16.916 149.088 16.916C148.224 16.916 147.56 17.124 147.096 17.54C146.632 17.956 146.384 18.564 146.352 19.364H143.88C143.912 17.988 144.384 16.94 145.296 16.22C146.224 15.5 147.52 15.14 149.184 15.14C150.928 15.14 152.232 15.524 153.096 16.292C153.96 17.06 154.392 18.18 154.392 19.652V27.5H152.376V26.372L152.568 25.268H151.992L152.616 24.26C152.52 24.82 152.28 25.364 151.896 25.892C151.528 26.42 150.992 26.86 150.288 27.212C149.584 27.564 148.728 27.74 147.72 27.74Z" fill="#059669"/>
</svg>
